<?xml version="1.0" encoding="UTF-8"?>
<!DOCTYPE svg PUBLIC "-//W3C//DTD SVG 1.1//EN" "http://www.w3.org/Graphics/SVG/1.1/DTD/svg11.dtd">
<!-- Creator: CorelDRAW 2020 (64-Bit) -->
<svg xmlns="http://www.w3.org/2000/svg" xml:space="preserve" width="1.16666in" height="0.25in" version="1.1" style="shape-rendering:geometricPrecision; text-rendering:geometricPrecision; image-rendering:optimizeQuality; fill-rule:evenodd; clip-rule:evenodd"
viewBox="0 0 53.38 11.44"
 xmlns:xlink="http://www.w3.org/1999/xlink"
 xmlns:xodm="http://www.corel.com/coreldraw/odm/2003">
 <defs>
  <style type="text/css">
   <![CDATA[
    .str0 {stroke:#00AFEF;stroke-width:0.14;stroke-miterlimit:2.61313}
    .fil1 {fill:none}
    .fil0 {fill:#00AFEF}
   ]]>
  </style>
 </defs>
 <g id="Layer_x0020_1">
  <metadata id="CorelCorpID_0Corel-Layer"/>
  <g id="_2495189981168">
   <path class="fil0 str0" d="M2.24 2.96l0 1.08c-0.01,0 -0.03,-0 -0.06,-0 -0.03,-0 -0.05,-0 -0.06,-0 -0.2,0 -0.33,0.05 -0.4,0.16 -0.07,0.11 -0.1,0.32 -0.1,0.66l0 1.08c0,0.42 -0.05,0.72 -0.14,0.9 -0.09,0.18 -0.26,0.31 -0.5,0.38 0.24,0.07 0.41,0.2 0.5,0.37 0.09,0.18 0.14,0.47 0.14,0.89l0 1.08c0,0.33 0.03,0.54 0.1,0.65 0.07,0.11 0.2,0.16 0.39,0.16 0.01,0 0.04,-0 0.07,-0 0.03,-0 0.05,-0 0.06,-0l0 1.08c-0.03,0 -0.07,0 -0.13,0 -0.05,0 -0.09,0 -0.12,0 -0.22,0 -0.4,-0.02 -0.54,-0.05 -0.14,-0.04 -0.26,-0.09 -0.36,-0.17 -0.12,-0.09 -0.2,-0.23 -0.25,-0.4 -0.05,-0.17 -0.07,-0.46 -0.07,-0.86l0 -1.15c0,-0.4 -0.05,-0.68 -0.15,-0.84 -0.1,-0.16 -0.27,-0.24 -0.51,-0.24 -0.01,0 -0.02,0 -0.05,0 -0.03,0 -0.05,0 -0.06,0l0 -1.08c0.01,0 0.03,0 0.05,0 0.02,0 0.04,0 0.05,0 0.24,0 0.41,-0.08 0.51,-0.25 0.1,-0.17 0.15,-0.45 0.15,-0.84l0 -1.14c0,-0.41 0.02,-0.69 0.07,-0.87 0.05,-0.17 0.13,-0.3 0.25,-0.4 0.1,-0.07 0.22,-0.13 0.36,-0.17 0.15,-0.04 0.33,-0.05 0.55,-0.05 0.02,0 0.06,0 0.12,0 0.05,0 0.1,0 0.13,0zm4.75 1.17l0 1.13 -2.58 1.57 2.58 1.56 0 1.14 -3.56 -2.18 0 -1.04 3.56 -2.18zm0.8 6.3l2.17 -7.56 0.67 0 -2.16 7.56 -0.67 0zm3.63 -6.3l3.56 2.18 0 1.04 -3.56 2.18 0 -1.14 2.58 -1.56 -2.58 -1.57 0 -1.13zm4.76 -1.17c0.03,0 0.07,-0 0.12,-0 0.05,-0 0.09,-0 0.12,-0 0.22,0 0.4,0.02 0.54,0.05 0.14,0.04 0.27,0.09 0.36,0.17 0.12,0.1 0.2,0.23 0.25,0.4 0.05,0.17 0.07,0.46 0.07,0.87l0 1.14c0,0.4 0.05,0.68 0.15,0.85 0.1,0.16 0.27,0.25 0.51,0.25 0.01,0 0.03,-0 0.05,-0 0.02,-0 0.04,-0 0.05,-0l0 1.08c-0.01,0 -0.03,-0 -0.05,-0 -0.02,-0 -0.04,-0 -0.05,-0 -0.24,0 -0.41,0.08 -0.51,0.25 -0.1,0.16 -0.15,0.44 -0.15,0.84l0 1.15c0,0.41 -0.02,0.7 -0.07,0.87 -0.05,0.17 -0.13,0.3 -0.25,0.4 -0.09,0.07 -0.21,0.13 -0.34,0.16 -0.14,0.04 -0.32,0.05 -0.54,0.05 -0.03,0 -0.07,-0 -0.13,-0 -0.06,-0 -0.11,-0 -0.14,-0l0 -1.08c0.02,0 0.04,0 0.07,0 0.03,0 0.05,0 0.06,0 0.19,0 0.33,-0.05 0.39,-0.15 0.07,-0.1 0.1,-0.32 0.1,-0.65l0 -1.08c0,-0.42 0.05,-0.72 0.14,-0.89 0.09,-0.18 0.26,-0.3 0.5,-0.37 -0.24,-0.07 -0.41,-0.2 -0.5,-0.38 -0.09,-0.18 -0.14,-0.48 -0.14,-0.9l0 -1.08c0,-0.33 -0.03,-0.55 -0.1,-0.66 -0.07,-0.11 -0.19,-0.16 -0.38,-0.16 -0.01,0 -0.04,0 -0.07,0 -0.03,0 -0.06,0 -0.07,0l0 -1.08zm3.16 6.62l0 -6.56 1.21 0 0 5.03 1.5 0 0 1.53 -2.7 0zm5.32 -2.84c-0.02,-0.26 -0.09,-0.46 -0.2,-0.62 -0.11,-0.16 -0.25,-0.23 -0.41,-0.23 -0.18,0 -0.32,0.07 -0.42,0.21 -0.1,0.14 -0.17,0.36 -0.21,0.64l1.24 0zm1.06 0.9l-2.32 0c0,0.35 0.06,0.62 0.18,0.81 0.12,0.19 0.29,0.28 0.51,0.28 0.16,0 0.3,-0.05 0.41,-0.14 0.11,-0.09 0.2,-0.23 0.26,-0.41l0.81 0.48c-0.1,0.35 -0.27,0.61 -0.51,0.8 -0.25,0.19 -0.55,0.28 -0.9,0.28 -0.53,0 -0.96,-0.22 -1.28,-0.66 -0.32,-0.44 -0.48,-1.02 -0.48,-1.73 0,-0.71 0.16,-1.29 0.48,-1.76 0.32,-0.47 0.73,-0.7 1.22,-0.7 0.51,0 0.9,0.24 1.2,0.71 0.29,0.47 0.44,1.12 0.44,1.94l0 0.08zm1.54 1.95l-1.37 -4.52 1.15 0 0.52 2c0.01,0.02 0.01,0.05 0.02,0.08 0.07,0.26 0.11,0.47 0.12,0.63 0.01,-0.15 0.05,-0.34 0.12,-0.59 0.01,-0.05 0.02,-0.09 0.03,-0.12l0.52 -2 1.12 0 -1.39 4.52 -0.84 0zm4.67 -2.84c-0.02,-0.26 -0.09,-0.46 -0.2,-0.62 -0.11,-0.16 -0.25,-0.23 -0.41,-0.23 -0.18,0 -0.32,0.07 -0.42,0.21 -0.1,0.14 -0.17,0.36 -0.21,0.64l1.24 0zm1.06 0.9l-2.32 0c0,0.35 0.06,0.62 0.18,0.81 0.12,0.19 0.29,0.28 0.51,0.28 0.16,0 0.3,-0.05 0.41,-0.14 0.11,-0.09 0.2,-0.23 0.26,-0.41l0.81 0.48c-0.1,0.35 -0.27,0.61 -0.51,0.8 -0.25,0.19 -0.55,0.28 -0.9,0.28 -0.53,0 -0.96,-0.22 -1.28,-0.66 -0.32,-0.44 -0.48,-1.02 -0.48,-1.73 0,-0.71 0.16,-1.29 0.48,-1.76 0.32,-0.47 0.73,-0.7 1.22,-0.7 0.51,0 0.9,0.24 1.2,0.71 0.29,0.47 0.44,1.12 0.44,1.94l0 0.08zm0.65 1.95l0 -5.01 1.08 0 0 5.01 -1.08 0zm0 -5.56l0 -0.37 1.08 0 0 0.37 -1.08 0zm0 -0.92l0 -0.47 1.08 0 0 0.47 -1.08 0zm5.94 6.48l0 -2.47c0,-0.39 -0.03,-0.66 -0.1,-0.81 -0.07,-0.15 -0.18,-0.22 -0.34,-0.22 -0.2,0 -0.34,0.1 -0.42,0.31 -0.08,0.21 -0.12,0.63 -0.12,1.28l0 1.92 -1.04 0 0 -2.47c0,-0.4 -0.03,-0.67 -0.1,-0.82 -0.06,-0.15 -0.18,-0.22 -0.34,-0.22 -0.2,0 -0.34,0.1 -0.42,0.31 -0.08,0.2 -0.12,0.63 -0.12,1.28l0 1.92 -1.05 0 0 -4.52 1.06 0 0 0.79c0.13,-0.32 0.27,-0.55 0.44,-0.71 0.17,-0.15 0.36,-0.23 0.59,-0.23 0.25,0 0.45,0.07 0.61,0.21 0.16,0.14 0.27,0.36 0.34,0.64 0.12,-0.29 0.26,-0.5 0.43,-0.64 0.17,-0.14 0.37,-0.21 0.6,-0.21 0.18,0 0.34,0.05 0.48,0.14 0.14,0.09 0.25,0.23 0.35,0.41 0.07,0.14 0.13,0.31 0.16,0.5 0.03,0.19 0.05,0.5 0.05,0.93l0 0.1 0 2.59 -1.06 0zm3.93 -2.84c-0.02,-0.26 -0.09,-0.46 -0.2,-0.62 -0.11,-0.16 -0.25,-0.23 -0.41,-0.23 -0.18,0 -0.32,0.07 -0.42,0.21 -0.1,0.14 -0.17,0.36 -0.21,0.64l1.24 0zm1.06 0.9l-2.32 0c0,0.35 0.06,0.62 0.18,0.81 0.12,0.19 0.29,0.28 0.51,0.28 0.16,0 0.3,-0.05 0.41,-0.14 0.11,-0.09 0.2,-0.23 0.26,-0.41l0.81 0.48c-0.1,0.35 -0.27,0.61 -0.51,0.8 -0.25,0.19 -0.55,0.28 -0.9,0.28 -0.53,0 -0.96,-0.22 -1.28,-0.66 -0.32,-0.44 -0.48,-1.02 -0.48,-1.73 0,-0.71 0.16,-1.29 0.48,-1.76 0.32,-0.47 0.73,-0.7 1.22,-0.7 0.51,0 0.9,0.24 1.2,0.71 0.29,0.47 0.44,1.12 0.44,1.94l0 0.08zm0.67 -4.62l1.2 0 0 0.35 -1.2 0 0 -0.35zm1.2 0.9l0 2.3c0,0.47 0.01,0.81 0.02,1.01 0.02,0.2 0.04,0.38 0.08,0.51 0.05,0.17 0.13,0.3 0.24,0.38 0.11,0.09 0.25,0.13 0.42,0.13 0.17,0 0.3,-0.04 0.42,-0.13 0.11,-0.09 0.19,-0.22 0.24,-0.38 0.04,-0.14 0.07,-0.31 0.08,-0.51 0.02,-0.2 0.02,-0.54 0.02,-1.01l0 -0.45 0 -2.74 1.2 0 0 3.47c0,0.72 -0.03,1.25 -0.09,1.59 -0.06,0.34 -0.16,0.63 -0.3,0.88 -0.15,0.26 -0.36,0.46 -0.62,0.6 -0.26,0.13 -0.58,0.2 -0.96,0.2 -0.38,0 -0.7,-0.07 -0.96,-0.2 -0.26,-0.13 -0.47,-0.33 -0.62,-0.6 -0.14,-0.24 -0.23,-0.54 -0.29,-0.88 -0.06,-0.34 -0.09,-0.87 -0.09,-1.59l0 -0.68 0 -1.89 1.2 0zm4.78 5.66l-1.13 0 0 -6.56 1.26 0c0.49,0 0.84,0.04 1.04,0.11 0.2,0.07 0.37,0.19 0.51,0.37 0.16,0.2 0.29,0.45 0.37,0.75 0.09,0.3 0.13,0.63 0.13,1 0,0.39 -0.04,0.74 -0.13,1.03 -0.08,0.3 -0.21,0.54 -0.37,0.73 -0.12,0.14 -0.27,0.25 -0.44,0.31 -0.17,0.06 -0.44,0.09 -0.81,0.09l-0.21 0 -0.22 0 0 2.17zm0 -3.61l0.23 0c0.29,0 0.49,-0.06 0.61,-0.18 0.11,-0.12 0.17,-0.32 0.17,-0.6 0,-0.28 -0.06,-0.47 -0.17,-0.59 -0.11,-0.12 -0.31,-0.17 -0.6,-0.17l-0.24 0 0 1.54z"/>
   <g>
    <polygon class="fil0" points="44.46,1.94 47.21,1.94 45.83,0 "/>
    <polyline class="fil1" points="47.21,1.94 45.83,0 44.46,1.94 "/>
   </g>
   <rect class="fil0" x="45.19" y="2.3" width="1.26" height="0.55"/>
  </g>
 </g>
</svg>
